<svg width="52" height="52" viewBox="0 0 52 52" fill="none" xmlns="http://www.w3.org/2000/svg">
<g clip-path="url(#clip0)">
<path fill-rule="evenodd" clip-rule="evenodd" d="M25.5 29.079C31.5413 29.079 36.4387 24.1277 36.4387 18.02C36.4387 11.9123 31.5413 6.96106 25.5 6.96106C19.4587 6.96106 14.5613 11.9123 14.5613 18.02C14.5613 24.1277 19.4587 29.079 25.5 29.079ZM8.74963 37.926C9.01124 34.1416 11.5517 30.8039 15.3727 28.6535C17.6179 31.0156 21.317 32.0279 25.5 32.0279C29.683 32.0279 33.3822 31.0156 35.6274 28.6535C39.4484 30.8039 41.9888 34.1416 42.2504 37.926H42.2728V38.5739V40.5065C42.2728 43.1531 40.1272 45.2987 37.4805 45.2987H13.5195C10.8728 45.2987 8.72729 43.1531 8.72729 40.5065V38.5739V37.926H8.74963Z" fill="white"/>
</g>
<defs>
<clipPath id="clip0">
<rect width="33.5455" height="38.3377" fill="white" transform="translate(8.72729 6.96106)"/>
</clipPath>
</defs>
</svg>
